<svg version="1.1" id="Capa_1" xmlns="http://www.w3.org/2000/svg" x="0" y="0" viewBox="0 0 246.595 246.595" xml:space="preserve"><path d="M159.365 3.145c-.081-.275-.265-.483-.466-.665.593-.916.072-2.633-1.248-2.47-11.392 1.41-22.83 2.243-34.311 2.372-5.42.061-15.712-2.546-20.088 1.098-.345.287-.249.947.147 1.141l.156.076c-3.008 1.738-5.403 4.969-7.71 7.526-2.394 2.654-4.719 6.647-8.278 7.743-.728.224-.78.919-.505 1.403-.024.222.012.447.215.619l.554.468a.603.603 0 00.526.121c-.007.053-.052.074-.05.134 2.34 57.528 4.933 115.03 7.086 172.567.001.037.019.062.023.097-.351.726-.067 1.731 1.014 1.788 4.698.245 9.421.004 14.122-.109 4.129-.099 8.408.192 12.426-.816.102-.025.149-.116.233-.166.47.096.978-.148 1.087-.728.03-.015.052.005.082-.014 2.077-1.266 4.105-2.607 6.142-3.935 1.821-1.187 4.078-2.215 5.512-3.861.652-.747.045-2.217-1.058-1.818-.055.02-.104.054-.158.075 1.475-60.246 15.347-121.048 24.373-180.581l.072-.08c.597-.65.498-1.425.102-1.985zm-36.837 190.714c-3.926-.625-8.011-.145-11.975.012-3.989.158-7.988.277-11.966.619a.438.438 0 00-.329-.306c.013-2.136-.007-4.281-.002-6.42 4.052.206 8.102.415 12.159.529.758.022.747-1.124 0-1.171-4.051-.254-8.105-.413-12.16-.576.004-2.648-.028-5.305-.037-7.955 4.946.23 9.89.457 14.841.587.937.025.928-1.403 0-1.45-4.948-.251-9.896-.404-14.847-.555-.013-3.087-.062-6.182-.092-9.274 4.537.256 9.073.54 13.614.69.855.028.841-1.264 0-1.32-4.538-.302-9.083-.47-13.627-.666-.057-5.517-.149-11.039-.262-16.564 5.957-.322 11.914-.643 17.862-1.117 1.025-.082 1.05-1.667 0-1.618-5.97.283-11.929.721-17.889 1.157-.064-3.026-.2-6.056-.282-9.084 5.398-.309 10.801-.576 16.186-1.079.997-.093 1.026-1.645 0-1.58-5.419.339-10.82.916-16.223 1.45-.102-3.714-.277-7.429-.404-11.144 6.203.083 12.403.163 18.608.097 1.149-.012 1.15-1.773 0-1.785-6.223-.066-12.443.014-18.665.098-.26-7.394-.591-14.788-.949-22.179 5.874.16 11.768.264 17.631.021 1.088-.045 1.09-1.646 0-1.692-5.886-.245-11.805-.139-17.701.022-.202-4.086-.448-8.168-.681-12.251 5.55.162 11.063.021 16.582-.805.766-.115.586-1.391-.183-1.351-5.496.281-10.986.56-16.486.606-.255-4.381-.612-8.745-.903-13.12a166.462 166.462 0 0123.337.805c.908.096 1.128-1.461.218-1.607-7.868-1.265-15.741-1.547-23.673-.913-.246-3.639-.548-7.265-.815-10.899 6.58.203 13.399.201 19.866-1.142.917-.191.721-1.7-.222-1.644-6.595.394-13.121 1.304-19.737 1.531-.32-4.321-.678-8.633-1.029-12.947 10.066.127 19.987 1.011 30.021 1.808.887.07 1.076-1.359.21-1.552-9.921-2.212-20.246-2.65-30.386-2.202-.635-7.663-1.316-15.314-2.129-22.931 4.765 2.206 22.275 1.137 24.865 1.084 9.179-.189 18.255-1.093 27.317-2.521-11.531 56.441-19.888 114.584-19.663 172.304zm19.418-94.193c-4.388 28.603-10.975 57.958-8.856 87.024-1.299.821-2.507 1.86-3.721 2.732a322.643 322.643 0 00-4.846 3.539c4.171-57.587 9.387-114.398 20.934-171.103.161-.788-.221-1.363-.754-1.7 1.7-.949 7.291-6.975 11.071-11.147-4.66 30.21-9.192 60.441-13.828 90.655zm14.699-96.349a329.332 329.332 0 00-10.222 11.173c-.98 1.119-2.794 2.619-3.542 4.256-.376-.391-.9-.647-1.563-.553-16.612 2.35-32.792 2.167-49.405 2.33 1.329-1.005 2.467-2.412 3.604-3.651 3.111-3.393 7.479-6.597 9.864-10.513.447-.734-.015-1.484-.678-1.751l.12-.126c.161-.17.149-.349.082-.507 2.665.482 11.353 1.571 12.359 1.602 4.721.148 9.453.106 14.173-.058 8.459-.294 16.847-1.164 25.224-2.312a1.94 1.94 0 01-.016.11zm-23.192 209.318c.027-.191.044-.379.071-.571.112-.795-.894-1.079-1.201-.331-.056.136-.102.283-.156.419-.054.021-.107-.009-.16.023-3.34 2.024-6.407 4.828-9.435 7.333a1.543 1.543 0 00-1.05-.478c-7.839-.463-15.668-.21-23.44.907 1.2-.867 2.346-1.843 3.487-2.704 2.005-1.512 4.182-2.922 5.891-4.774.157-.17.194-.358.227-.543 7.672 1.191 15.829.512 23.551.352 1.459-.031 1.462-2.238 0-2.269-7.874-.163-16.203-.89-24.001.399-.214.035-.346.176-.434.348-.194-.02-.393-.031-.604.078-2.276 1.176-4.247 2.94-6.27 4.497-1.822 1.403-4.081 2.709-5.505 4.52l.041.024c-.41.43-.314 1.168.09 1.526-.021.113-.086.193-.086.32-.008 5.159-.017 10.318-.023 15.477-.003 2.223-.995 6.595.905 8.426 1.93 1.861 6.344.524 8.584.369 5.325-.367 10.657-.673 15.973-1.154.68-.061 1.286-.446 1.526-1.057 2.229-.38 4.874-1.297 6.838-2.792.647.709 1.979.481 2.093-.759.814-8.856 1.737-17.541 2.935-26.342l.015-.012c.416-.356.368-.843.138-1.232zm-15.123 29.007c-3.47.176-6.937.406-10.404.632-1.851.121-8.611 1.562-9.991.686-.324-.206-.358-1.86-.3-3.74 4.488-.178 8.961-.372 13.44-.727.67-.053.691-1.071 0-1.06-4.474.072-8.927.305-13.393.554.09-1.897.228-3.729.249-4.461.075.249.242.469.584.475 2.867.055 5.727.089 8.594.019.897-.022.899-1.372 0-1.394-2.867-.07-5.727-.037-8.594.019-.33.006-.495.215-.576.453l.005-10.977c7.307-.323 14.573-.381 21.876-.04a174.843 174.843 0 00-1.49 19.561zm9.506-3.814c-.812.78-1.589 1.594-2.563 2.231-1.147.75-2.41 1.245-3.71 1.64 0-6.942.45-13.832 1.449-20.711.007-.051-.007-.095-.003-.145 2.57-1.644 5.333-3.243 7.856-5.058-2.244 6.953-3.329 14.849-3.029 22.043z"/><path d="M113.72 226.852c-4.849-.07-9.694-.022-14.544.018-.646.006-.647.999 0 1.004 4.849.04 9.695.089 14.544.018.669-.008.671-1.03 0-1.04zm-2.642-70.045a502.33 502.33 0 00-9.254.686c-.66.055-.674 1.083 0 1.041 3.088-.191 6.17-.419 9.254-.667.673-.054.684-1.105 0-1.06zm2.642-42.468c-5.069-.211-10.134-.041-15.205.056-.766.015-.767 1.175 0 1.19 5.071.096 10.135.267 15.205.056.836-.036.838-1.268 0-1.302zm3.968-80.126c-8.518-1.045-16.869-.639-25.331.7-.87.138-.674 1.671.21 1.552 8.342-1.12 16.725-1.204 25.121-.727 1 .056.948-1.409 0-1.525z"/></svg>